<mxfile host="app.diagrams.net" modified="2023-11-20T12:25:18.566Z" agent="Mozilla/5.0 (Windows NT 10.0; Win64; x64; rv:109.0) Gecko/20100101 Firefox/119.0" etag="0fXS1u2kvDPhEjO-Iw8d" version="22.1.3" type="github">
  <diagram id="R2lEEEUBdFMjLlhIrx00" name="Page-1">
    <mxGraphModel dx="1434" dy="782" grid="1" gridSize="10" guides="1" tooltips="1" connect="1" arrows="1" fold="1" page="1" pageScale="1" pageWidth="850" pageHeight="1100" math="0" shadow="0" extFonts="Permanent Marker^https://fonts.googleapis.com/css?family=Permanent+Marker">
      <root>
        <mxCell id="0" />
        <mxCell id="1" parent="0" />
        <mxCell id="dmmKsYoDbnQFE4DkvY4d-1" value="&lt;p&gt;Zadatak&lt;/p&gt;&lt;p&gt;&lt;/p&gt;&lt;p&gt;Na fakultetu se za potrebe izrade nastavnog plana trebanapraviti evidencije predmeta po zavodima. Pri tome se na fakuletu primjenjuju sljedeća pravila:&lt;/p&gt;&lt;p&gt;- Svaki predmet pripada samo jednom zavodu&lt;/p&gt;&lt;p&gt;&lt;span&gt;- Zaposlenici zavoda mogu održavati nastavu naviše predmeta, a mogući su I zavodi koji nemaju nijedan predmet &lt;/span&gt;&lt;/p&gt;" style="text;html=1;strokeColor=none;fillColor=none;spacing=5;spacingTop=-20;whiteSpace=wrap;overflow=hidden;rounded=0;" parent="1" vertex="1">
          <mxGeometry x="70" y="10" width="550" height="130" as="geometry" />
        </mxCell>
        <mxCell id="z9GFBWPs9FZDL85HpxyQ-1" value="zavod" style="shape=table;startSize=20;container=1;collapsible=1;childLayout=tableLayout;fixedRows=1;rowLines=0;fontStyle=1;align=center;resizeLast=1;html=1;" parent="1" vertex="1">
          <mxGeometry x="300" y="640" width="130" height="180" as="geometry" />
        </mxCell>
        <mxCell id="z9GFBWPs9FZDL85HpxyQ-2" value="" style="shape=tableRow;horizontal=0;startSize=0;swimlaneHead=0;swimlaneBody=0;fillColor=none;collapsible=0;dropTarget=0;points=[[0,0.5],[1,0.5]];portConstraint=eastwest;top=0;left=0;right=0;bottom=1;" parent="z9GFBWPs9FZDL85HpxyQ-1" vertex="1">
          <mxGeometry y="20" width="130" height="30" as="geometry" />
        </mxCell>
        <mxCell id="z9GFBWPs9FZDL85HpxyQ-3" value="PK" style="shape=partialRectangle;connectable=0;fillColor=none;top=0;left=0;bottom=0;right=0;fontStyle=1;overflow=hidden;whiteSpace=wrap;html=1;" parent="z9GFBWPs9FZDL85HpxyQ-2" vertex="1">
          <mxGeometry width="30" height="30" as="geometry">
            <mxRectangle width="30" height="30" as="alternateBounds" />
          </mxGeometry>
        </mxCell>
        <mxCell id="z9GFBWPs9FZDL85HpxyQ-4" value="id_zavoda" style="shape=partialRectangle;connectable=0;fillColor=none;top=0;left=0;bottom=0;right=0;align=left;spacingLeft=6;fontStyle=5;overflow=hidden;whiteSpace=wrap;html=1;" parent="z9GFBWPs9FZDL85HpxyQ-2" vertex="1">
          <mxGeometry x="30" width="100" height="30" as="geometry">
            <mxRectangle width="100" height="30" as="alternateBounds" />
          </mxGeometry>
        </mxCell>
        <mxCell id="z9GFBWPs9FZDL85HpxyQ-5" value="" style="shape=tableRow;horizontal=0;startSize=0;swimlaneHead=0;swimlaneBody=0;fillColor=none;collapsible=0;dropTarget=0;points=[[0,0.5],[1,0.5]];portConstraint=eastwest;top=0;left=0;right=0;bottom=0;" parent="z9GFBWPs9FZDL85HpxyQ-1" vertex="1">
          <mxGeometry y="50" width="130" height="30" as="geometry" />
        </mxCell>
        <mxCell id="z9GFBWPs9FZDL85HpxyQ-6" value="" style="shape=partialRectangle;connectable=0;fillColor=none;top=0;left=0;bottom=0;right=0;editable=1;overflow=hidden;whiteSpace=wrap;html=1;" parent="z9GFBWPs9FZDL85HpxyQ-5" vertex="1">
          <mxGeometry width="30" height="30" as="geometry">
            <mxRectangle width="30" height="30" as="alternateBounds" />
          </mxGeometry>
        </mxCell>
        <mxCell id="z9GFBWPs9FZDL85HpxyQ-7" value="naziv_zavoda" style="shape=partialRectangle;connectable=0;fillColor=none;top=0;left=0;bottom=0;right=0;align=left;spacingLeft=6;overflow=hidden;whiteSpace=wrap;html=1;" parent="z9GFBWPs9FZDL85HpxyQ-5" vertex="1">
          <mxGeometry x="30" width="100" height="30" as="geometry">
            <mxRectangle width="100" height="30" as="alternateBounds" />
          </mxGeometry>
        </mxCell>
        <mxCell id="z9GFBWPs9FZDL85HpxyQ-8" value="" style="shape=tableRow;horizontal=0;startSize=0;swimlaneHead=0;swimlaneBody=0;fillColor=none;collapsible=0;dropTarget=0;points=[[0,0.5],[1,0.5]];portConstraint=eastwest;top=0;left=0;right=0;bottom=0;" parent="z9GFBWPs9FZDL85HpxyQ-1" vertex="1">
          <mxGeometry y="80" width="130" height="30" as="geometry" />
        </mxCell>
        <mxCell id="z9GFBWPs9FZDL85HpxyQ-9" value="" style="shape=partialRectangle;connectable=0;fillColor=none;top=0;left=0;bottom=0;right=0;editable=1;overflow=hidden;whiteSpace=wrap;html=1;" parent="z9GFBWPs9FZDL85HpxyQ-8" vertex="1">
          <mxGeometry width="30" height="30" as="geometry">
            <mxRectangle width="30" height="30" as="alternateBounds" />
          </mxGeometry>
        </mxCell>
        <mxCell id="z9GFBWPs9FZDL85HpxyQ-10" value="ime " style="shape=partialRectangle;connectable=0;fillColor=none;top=0;left=0;bottom=0;right=0;align=left;spacingLeft=6;overflow=hidden;whiteSpace=wrap;html=1;" parent="z9GFBWPs9FZDL85HpxyQ-8" vertex="1">
          <mxGeometry x="30" width="100" height="30" as="geometry">
            <mxRectangle width="100" height="30" as="alternateBounds" />
          </mxGeometry>
        </mxCell>
        <mxCell id="z9GFBWPs9FZDL85HpxyQ-11" value="" style="shape=tableRow;horizontal=0;startSize=0;swimlaneHead=0;swimlaneBody=0;fillColor=none;collapsible=0;dropTarget=0;points=[[0,0.5],[1,0.5]];portConstraint=eastwest;top=0;left=0;right=0;bottom=0;" parent="z9GFBWPs9FZDL85HpxyQ-1" vertex="1">
          <mxGeometry y="110" width="130" height="30" as="geometry" />
        </mxCell>
        <mxCell id="z9GFBWPs9FZDL85HpxyQ-12" value="" style="shape=partialRectangle;connectable=0;fillColor=none;top=0;left=0;bottom=0;right=0;editable=1;overflow=hidden;whiteSpace=wrap;html=1;" parent="z9GFBWPs9FZDL85HpxyQ-11" vertex="1">
          <mxGeometry width="30" height="30" as="geometry">
            <mxRectangle width="30" height="30" as="alternateBounds" />
          </mxGeometry>
        </mxCell>
        <mxCell id="z9GFBWPs9FZDL85HpxyQ-13" value="prezime " style="shape=partialRectangle;connectable=0;fillColor=none;top=0;left=0;bottom=0;right=0;align=left;spacingLeft=6;overflow=hidden;whiteSpace=wrap;html=1;" parent="z9GFBWPs9FZDL85HpxyQ-11" vertex="1">
          <mxGeometry x="30" width="100" height="30" as="geometry">
            <mxRectangle width="100" height="30" as="alternateBounds" />
          </mxGeometry>
        </mxCell>
        <mxCell id="jAGvTpzPNFM8McMQHuLp-1" value="" style="shape=tableRow;horizontal=0;startSize=0;swimlaneHead=0;swimlaneBody=0;fillColor=none;collapsible=0;dropTarget=0;points=[[0,0.5],[1,0.5]];portConstraint=eastwest;top=0;left=0;right=0;bottom=0;" vertex="1" parent="z9GFBWPs9FZDL85HpxyQ-1">
          <mxGeometry y="140" width="130" height="30" as="geometry" />
        </mxCell>
        <mxCell id="jAGvTpzPNFM8McMQHuLp-2" value="" style="shape=partialRectangle;connectable=0;fillColor=none;top=0;left=0;bottom=0;right=0;editable=1;overflow=hidden;whiteSpace=wrap;html=1;" vertex="1" parent="jAGvTpzPNFM8McMQHuLp-1">
          <mxGeometry width="30" height="30" as="geometry">
            <mxRectangle width="30" height="30" as="alternateBounds" />
          </mxGeometry>
        </mxCell>
        <mxCell id="jAGvTpzPNFM8McMQHuLp-3" value="naziv predmeta" style="shape=partialRectangle;connectable=0;fillColor=none;top=0;left=0;bottom=0;right=0;align=left;spacingLeft=6;overflow=hidden;whiteSpace=wrap;html=1;" vertex="1" parent="jAGvTpzPNFM8McMQHuLp-1">
          <mxGeometry x="30" width="100" height="30" as="geometry">
            <mxRectangle width="100" height="30" as="alternateBounds" />
          </mxGeometry>
        </mxCell>
        <mxCell id="MWMhoBMyGc0rTg2RT5Ye-21" value="predmet" style="swimlane;childLayout=stackLayout;horizontal=1;startSize=50;horizontalStack=0;rounded=1;fontSize=14;fontStyle=0;strokeWidth=2;resizeParent=0;resizeLast=1;shadow=0;dashed=0;align=center;arcSize=4;whiteSpace=wrap;html=1;" parent="1" vertex="1">
          <mxGeometry x="55" y="330" width="160" height="120" as="geometry" />
        </mxCell>
        <mxCell id="MWMhoBMyGc0rTg2RT5Ye-22" value="naziv predmeta&lt;br&gt;" style="align=left;strokeColor=none;fillColor=none;spacingLeft=4;fontSize=12;verticalAlign=top;resizable=0;rotatable=0;part=1;html=1;" parent="MWMhoBMyGc0rTg2RT5Ye-21" vertex="1">
          <mxGeometry y="50" width="160" height="70" as="geometry" />
        </mxCell>
        <mxCell id="MWMhoBMyGc0rTg2RT5Ye-23" value="zavod" style="swimlane;childLayout=stackLayout;horizontal=1;startSize=50;horizontalStack=0;rounded=1;fontSize=14;fontStyle=0;strokeWidth=2;resizeParent=0;resizeLast=1;shadow=0;dashed=0;align=center;arcSize=4;whiteSpace=wrap;html=1;" parent="1" vertex="1">
          <mxGeometry x="270" y="140" width="160" height="120" as="geometry" />
        </mxCell>
        <mxCell id="MWMhoBMyGc0rTg2RT5Ye-24" value="naziv zavoda" style="align=left;strokeColor=none;fillColor=none;spacingLeft=4;fontSize=12;verticalAlign=top;resizable=0;rotatable=0;part=1;html=1;" parent="MWMhoBMyGc0rTg2RT5Ye-23" vertex="1">
          <mxGeometry y="50" width="160" height="70" as="geometry" />
        </mxCell>
        <mxCell id="MWMhoBMyGc0rTg2RT5Ye-25" value="zaposlenik" style="swimlane;childLayout=stackLayout;horizontal=1;startSize=50;horizontalStack=0;rounded=1;fontSize=14;fontStyle=0;strokeWidth=2;resizeParent=0;resizeLast=1;shadow=0;dashed=0;align=center;arcSize=4;whiteSpace=wrap;html=1;" parent="1" vertex="1">
          <mxGeometry x="490" y="340" width="160" height="120" as="geometry" />
        </mxCell>
        <mxCell id="MWMhoBMyGc0rTg2RT5Ye-26" value="&lt;div&gt;ime&lt;/div&gt;&lt;div&gt;prezime &lt;br&gt;&lt;/div&gt;&lt;div&gt;&lt;br&gt;&lt;/div&gt;" style="align=left;strokeColor=none;fillColor=none;spacingLeft=4;fontSize=12;verticalAlign=top;resizable=0;rotatable=0;part=1;html=1;" parent="MWMhoBMyGc0rTg2RT5Ye-25" vertex="1">
          <mxGeometry y="50" width="160" height="70" as="geometry" />
        </mxCell>
        <mxCell id="MWMhoBMyGc0rTg2RT5Ye-32" value="" style="edgeStyle=entityRelationEdgeStyle;fontSize=12;html=1;endArrow=ERoneToMany;startArrow=ERzeroToMany;rounded=0;entryX=0;entryY=0;entryDx=0;entryDy=0;" parent="1" source="MWMhoBMyGc0rTg2RT5Ye-22" target="MWMhoBMyGc0rTg2RT5Ye-26" edge="1">
          <mxGeometry width="100" height="100" relative="1" as="geometry">
            <mxPoint x="360" y="520" as="sourcePoint" />
            <mxPoint x="270" y="750" as="targetPoint" />
          </mxGeometry>
        </mxCell>
        <mxCell id="MWMhoBMyGc0rTg2RT5Ye-33" value="je angažiran" style="edgeLabel;html=1;align=center;verticalAlign=middle;resizable=0;points=[];" parent="MWMhoBMyGc0rTg2RT5Ye-32" vertex="1" connectable="0">
          <mxGeometry x="-0.3536" y="5" relative="1" as="geometry">
            <mxPoint as="offset" />
          </mxGeometry>
        </mxCell>
        <mxCell id="MWMhoBMyGc0rTg2RT5Ye-35" value="&lt;div&gt;er model &lt;br&gt;&lt;/div&gt;&lt;div&gt;atributi ovdje nisu nužni, ali mogu biti i ovdje su navedeni ispod naziva entiteta&amp;nbsp; &lt;br&gt;&lt;/div&gt;" style="text;html=1;strokeColor=none;fillColor=none;align=left;verticalAlign=middle;whiteSpace=wrap;rounded=0;" parent="1" vertex="1">
          <mxGeometry x="675" y="205" width="185" height="30" as="geometry" />
        </mxCell>
        <mxCell id="MWMhoBMyGc0rTg2RT5Ye-36" value="&lt;div&gt;Predmet (&lt;b&gt;šifra_predmeta&lt;/b&gt;, naziv, )&lt;/div&gt;&lt;div&gt;Zavod (&lt;b&gt;šifra zavoda&lt;/b&gt;, naziv zavoda, )&lt;/div&gt;&lt;div&gt;zaposlenik (&lt;b&gt;šifra_zaposlenika&lt;/b&gt;. ime, prezime, &lt;br&gt;&lt;/div&gt;" style="text;html=1;strokeColor=none;fillColor=none;align=left;verticalAlign=middle;whiteSpace=wrap;rounded=0;" parent="1" vertex="1">
          <mxGeometry x="70" y="450" width="420" height="110" as="geometry" />
        </mxCell>
        <mxCell id="MWMhoBMyGc0rTg2RT5Ye-37" value="Text" style="text;html=1;strokeColor=none;fillColor=none;align=center;verticalAlign=middle;whiteSpace=wrap;rounded=0;" parent="1" vertex="1">
          <mxGeometry x="380" y="640" width="60" height="30" as="geometry" />
        </mxCell>
        <mxCell id="MWMhoBMyGc0rTg2RT5Ye-38" value="atributi entiteta s primarnim ključevima " style="text;html=1;strokeColor=none;fillColor=none;align=left;verticalAlign=middle;whiteSpace=wrap;rounded=0;" parent="1" vertex="1">
          <mxGeometry x="690" y="480" width="130" height="30" as="geometry" />
        </mxCell>
        <mxCell id="MWMhoBMyGc0rTg2RT5Ye-42" value="er model u tablicama " style="text;html=1;strokeColor=none;fillColor=none;align=left;verticalAlign=middle;whiteSpace=wrap;rounded=0;" parent="1" vertex="1">
          <mxGeometry x="675" y="680" width="130" height="30" as="geometry" />
        </mxCell>
        <mxCell id="MWMhoBMyGc0rTg2RT5Ye-43" value="&lt;div&gt;Napomene: 1nf&lt;br&gt;&lt;/div&gt;&lt;div&gt;&lt;br&gt;&lt;/div&gt;" style="text;html=1;strokeColor=none;fillColor=none;align=left;verticalAlign=middle;whiteSpace=wrap;rounded=0;" parent="1" vertex="1">
          <mxGeometry x="675" y="720" width="130" height="50" as="geometry" />
        </mxCell>
        <mxCell id="MWMhoBMyGc0rTg2RT5Ye-45" value="" style="edgeStyle=entityRelationEdgeStyle;fontSize=12;html=1;endArrow=ERzeroToMany;startArrow=ERmandOne;rounded=0;entryX=1;entryY=0.25;entryDx=0;entryDy=0;exitX=0;exitY=0;exitDx=0;exitDy=0;" parent="1" source="MWMhoBMyGc0rTg2RT5Ye-24" target="MWMhoBMyGc0rTg2RT5Ye-21" edge="1">
          <mxGeometry width="100" height="100" relative="1" as="geometry">
            <mxPoint x="310" y="300" as="sourcePoint" />
            <mxPoint x="410" y="200" as="targetPoint" />
            <Array as="points">
              <mxPoint x="160" y="260" />
              <mxPoint x="190" y="250" />
              <mxPoint x="150" y="270" />
              <mxPoint x="170" y="300" />
            </Array>
          </mxGeometry>
        </mxCell>
        <mxCell id="MWMhoBMyGc0rTg2RT5Ye-46" value="pripada" style="edgeLabel;html=1;align=center;verticalAlign=middle;resizable=0;points=[];" parent="MWMhoBMyGc0rTg2RT5Ye-45" vertex="1" connectable="0">
          <mxGeometry x="-0.0894" y="1" relative="1" as="geometry">
            <mxPoint as="offset" />
          </mxGeometry>
        </mxCell>
        <mxCell id="MWMhoBMyGc0rTg2RT5Ye-47" value="" style="edgeStyle=entityRelationEdgeStyle;fontSize=12;html=1;endArrow=ERzeroToMany;startArrow=ERmandOne;rounded=0;entryX=0;entryY=0.25;entryDx=0;entryDy=0;" parent="1" source="MWMhoBMyGc0rTg2RT5Ye-24" target="MWMhoBMyGc0rTg2RT5Ye-25" edge="1">
          <mxGeometry width="100" height="100" relative="1" as="geometry">
            <mxPoint x="310" y="300" as="sourcePoint" />
            <mxPoint x="410" y="200" as="targetPoint" />
          </mxGeometry>
        </mxCell>
        <mxCell id="MWMhoBMyGc0rTg2RT5Ye-48" value="pripada" style="edgeLabel;html=1;align=center;verticalAlign=middle;resizable=0;points=[];" parent="MWMhoBMyGc0rTg2RT5Ye-47" vertex="1" connectable="0">
          <mxGeometry x="-0.0439" y="2" relative="1" as="geometry">
            <mxPoint as="offset" />
          </mxGeometry>
        </mxCell>
      </root>
    </mxGraphModel>
  </diagram>
</mxfile>
